<svg width="155" height="32" viewBox="0 0 155 32" fill="none" xmlns="http://www.w3.org/2000/svg">
<path d="M15.7089 0C11.8451 3.07553 10.2457 2.57514 8.91589 0.0149836C10.0399 4.20475 9.62072 4.53834 5.88742 7.9559C10.4466 5.52678 12.4025 5.62404 14.7568 8.44539C12.3929 4.82807 12.6606 3.31349 15.7089 6.807e-05V0ZM16.9555 0.0085815L17.747 7.83671L10.9834 11.7933L17.6031 13.2299C16.9543 13.7988 16.2342 14.5259 15.4848 15.2796L15.4826 15.2817L0 30.6761V32H2.17762L17.2538 17.0589C17.9487 16.3599 18.5339 15.7282 18.9997 15.1689L20.2822 21.1453L24.2163 14.3431L32 15.1391L26.7835 9.27548L29.943 2.07721L22.7856 5.2549L16.9554 0.0085815H16.9555ZM0.562893 2.30939C2.84948 4.19324 2.94733 5.22214 2.6453 8.28786C3.9303 4.62844 4.53904 3.70443 7.01328 2.70305C4.36181 3.34162 3.22668 3.47143 0.562893 2.30952V2.30939ZM4.27059 9.28399C5.96056 11.1237 6.09702 12.2592 5.91282 14.192C6.91339 11.8457 7.40755 11.0822 9.67978 9.81183C7.33935 10.5735 6.59849 10.5079 4.27059 9.28399ZM26.32 15.7542C26.9478 19.2749 26.0078 20.7743 24.0957 23.0204C27.028 20.4975 28.0135 20.0043 30.6541 20.3812C28.0402 19.6009 27.4423 18.9766 26.3199 15.7543L26.32 15.7542ZM22.5508 20.7132C21.2841 25.3983 19.4828 26.4304 15.2624 25.4893C18.9278 26.8582 19.0778 26.9243 18.8876 31.2954C20.5642 27.5209 22.0359 27.7391 25.3251 28.7607C22.4961 26.5923 22.2296 25.4255 22.5508 20.7133V20.7132ZM29.9557 24.5252C28.9182 25.7507 28.4027 25.7164 26.9887 25.1615C28.5346 26.4177 28.1803 27.4788 27.723 29.2075C28.81 27.9052 29.3156 27.4886 31.1302 28.3433C29.5821 26.8898 29.2929 26.3098 29.9557 24.5251V24.5252Z" fill="#8F4E3A"/>
<path d="M49.475 8.8C48.1583 8.8 47.5 9.51667 47.5 10.95V11.75H51.175V14.25H47.6V25H44.475V14.25H42.275V11.75H44.475V10.9C44.475 9.46667 44.8917 8.34167 45.725 7.525C46.5583 6.69167 47.7333 6.275 49.25 6.275C50.45 6.275 51.3917 6.51667 52.075 7L51.2 9.35C50.6667 8.98333 50.0917 8.8 49.475 8.8ZM58.1344 11.5C60.101 11.5 61.601 11.975 62.6344 12.925C63.6844 13.8583 64.2094 15.275 64.2094 17.175V25H61.2594V23.375C60.876 23.9583 60.326 24.4083 59.6094 24.725C58.9094 25.025 58.0594 25.175 57.0594 25.175C56.0594 25.175 55.1844 25.0083 54.4344 24.675C53.6844 24.325 53.101 23.85 52.6844 23.25C52.2844 22.6333 52.0844 21.9417 52.0844 21.175C52.0844 19.975 52.526 19.0167 53.4094 18.3C54.3094 17.5667 55.7177 17.2 57.6344 17.2H61.0844V17C61.0844 16.0667 60.801 15.35 60.2344 14.85C59.6844 14.35 58.8594 14.1 57.7594 14.1C57.0094 14.1 56.2677 14.2167 55.5344 14.45C54.8177 14.6833 54.2094 15.0083 53.7094 15.425L52.4844 13.15C53.1844 12.6167 54.026 12.2083 55.0094 11.925C55.9927 11.6417 57.0344 11.5 58.1344 11.5ZM57.7094 22.9C58.4927 22.9 59.1844 22.725 59.7844 22.375C60.401 22.0083 60.8344 21.4917 61.0844 20.825V19.275H57.8594C56.0594 19.275 55.1594 19.8667 55.1594 21.05C55.1594 21.6167 55.3844 22.0667 55.8344 22.4C56.2844 22.7333 56.9094 22.9 57.7094 22.9ZM68.2199 11.65H71.3449V25H68.2199V11.65ZM69.7949 9.45C69.2283 9.45 68.7533 9.275 68.3699 8.925C67.9866 8.55833 67.7949 8.10833 67.7949 7.575C67.7949 7.04167 67.9866 6.6 68.3699 6.25C68.7533 5.88333 69.2283 5.7 69.7949 5.7C70.3616 5.7 70.8366 5.875 71.2199 6.225C71.6033 6.55833 71.7949 6.98333 71.7949 7.5C71.7949 8.05 71.6033 8.51667 71.2199 8.9C70.8533 9.26667 70.3783 9.45 69.7949 9.45ZM78.4215 13.6C79.3215 12.2 80.9048 11.5 83.1715 11.5V14.475C82.9048 14.425 82.6632 14.4 82.4465 14.4C81.2298 14.4 80.2798 14.7583 79.5965 15.475C78.9132 16.175 78.5715 17.1917 78.5715 18.525V25H75.4465V11.65H78.4215V13.6ZM98.8107 11.65L92.5607 26.075C91.9774 27.525 91.2691 28.5417 90.4357 29.125C89.6024 29.725 88.5941 30.025 87.4107 30.025C86.7441 30.025 86.0857 29.9167 85.4357 29.7C84.7857 29.4833 84.2524 29.1833 83.8357 28.8L85.0857 26.5C85.3857 26.7833 85.7357 27.0083 86.1357 27.175C86.5524 27.3417 86.9691 27.425 87.3857 27.425C87.9357 27.425 88.3857 27.2833 88.7357 27C89.1024 26.7167 89.4357 26.2417 89.7357 25.575L89.9607 25.05L84.1357 11.65H87.3857L91.5857 21.525L95.8107 11.65H98.8107ZM117.614 11.5C119.297 11.5 120.631 11.9917 121.614 12.975C122.597 13.9417 123.089 15.4 123.089 17.35V25H119.964V17.75C119.964 16.5833 119.706 15.7083 119.189 15.125C118.672 14.525 117.931 14.225 116.964 14.225C115.914 14.225 115.072 14.575 114.439 15.275C113.806 15.9583 113.489 16.9417 113.489 18.225V25H110.364V17.75C110.364 16.5833 110.106 15.7083 109.589 15.125C109.072 14.525 108.331 14.225 107.364 14.225C106.297 14.225 105.447 14.5667 104.814 15.25C104.197 15.9333 103.889 16.925 103.889 18.225V25H100.764V11.65H103.739V13.35C104.239 12.75 104.864 12.2917 105.614 11.975C106.364 11.6583 107.197 11.5 108.114 11.5C109.114 11.5 109.997 11.6917 110.764 12.075C111.547 12.4417 112.164 12.9917 112.614 13.725C113.164 13.025 113.872 12.4833 114.739 12.1C115.606 11.7 116.564 11.5 117.614 11.5ZM132.182 11.5C134.149 11.5 135.649 11.975 136.682 12.925C137.732 13.8583 138.257 15.275 138.257 17.175V25H135.307V23.375C134.924 23.9583 134.374 24.4083 133.657 24.725C132.957 25.025 132.107 25.175 131.107 25.175C130.107 25.175 129.232 25.0083 128.482 24.675C127.732 24.325 127.149 23.85 126.732 23.25C126.332 22.6333 126.132 21.9417 126.132 21.175C126.132 19.975 126.574 19.0167 127.457 18.3C128.357 17.5667 129.766 17.2 131.682 17.2H135.132V17C135.132 16.0667 134.849 15.35 134.282 14.85C133.732 14.35 132.907 14.1 131.807 14.1C131.057 14.1 130.316 14.2167 129.582 14.45C128.866 14.6833 128.257 15.0083 127.757 15.425L126.532 13.15C127.232 12.6167 128.074 12.2083 129.057 11.925C130.041 11.6417 131.082 11.5 132.182 11.5ZM131.757 22.9C132.541 22.9 133.232 22.725 133.832 22.375C134.449 22.0083 134.882 21.4917 135.132 20.825V19.275H131.907C130.107 19.275 129.207 19.8667 129.207 21.05C129.207 21.6167 129.432 22.0667 129.882 22.4C130.332 22.7333 130.957 22.9 131.757 22.9ZM142.268 11.65H145.393V25H142.268V11.65ZM143.843 9.45C143.276 9.45 142.801 9.275 142.418 8.925C142.034 8.55833 141.843 8.10833 141.843 7.575C141.843 7.04167 142.034 6.6 142.418 6.25C142.801 5.88333 143.276 5.7 143.843 5.7C144.409 5.7 144.884 5.875 145.268 6.225C145.651 6.55833 145.843 6.98333 145.843 7.5C145.843 8.05 145.651 8.51667 145.268 8.9C144.901 9.26667 144.426 9.45 143.843 9.45ZM149.494 6.45H152.619V25H149.494V6.45Z" fill="#8F4E3A"/>
</svg>
